<svg width="40" height="40" viewBox="0 0 40 40" fill="none" xmlns="http://www.w3.org/2000/svg">
<rect x="5.75561" y="19.5935" width="9.11105" height="13.8898" stroke="#F8C301" stroke-width="0.813954"/>
<rect x="8.65674" y="21.3926" width="3.30834" height="3.30834" fill="#358F80"/>
<rect x="8.65674" y="28.1924" width="3.30834" height="3.30834" fill="#358F80"/>
<mask id="path-4-inside-1_17_376" fill="white">
<path fill-rule="evenodd" clip-rule="evenodd" d="M20.338 9.80731C20.1405 9.59678 19.8062 9.59678 19.6087 9.80731L12.4864 17.3988C12.1869 17.7181 12.4133 18.2409 12.8511 18.2409H14.2757V33.8374H25.671V18.2409H27.0956C27.5334 18.2409 27.7598 17.7181 27.4603 17.3988L20.338 9.80731Z"/>
</mask>
<path fill-rule="evenodd" clip-rule="evenodd" d="M20.338 9.80731C20.1405 9.59678 19.8062 9.59678 19.6087 9.80731L12.4864 17.3988C12.1869 17.7181 12.4133 18.2409 12.8511 18.2409H14.2757V33.8374H25.671V18.2409H27.0956C27.5334 18.2409 27.7598 17.7181 27.4603 17.3988L20.338 9.80731Z" fill="white"/>
<path d="M19.6087 9.80731L20.2023 10.3642V10.3642L19.6087 9.80731ZM20.338 9.80731L19.7444 10.3642V10.3642L20.338 9.80731ZM12.4864 17.3988L11.8928 16.8419H11.8928L12.4864 17.3988ZM14.2757 18.2409H15.0896V17.4269H14.2757V18.2409ZM14.2757 33.8374H13.4617V34.6513H14.2757V33.8374ZM25.671 33.8374V34.6513H26.485V33.8374H25.671ZM25.671 18.2409V17.4269H24.8571V18.2409H25.671ZM27.4603 17.3988L26.8667 17.9557L26.8667 17.9557L27.4603 17.3988ZM20.2023 10.3642C20.0783 10.4964 19.8684 10.4964 19.7444 10.3642L20.9316 9.25039C20.4125 8.69715 19.5342 8.69715 19.0151 9.25039L20.2023 10.3642ZM13.0801 17.9557L20.2023 10.3642L19.0151 9.25039L11.8928 16.8419L13.0801 17.9557ZM12.8511 17.4269C13.126 17.4269 13.2681 17.7552 13.0801 17.9557L11.8928 16.8419C11.1056 17.6809 11.7006 19.0548 12.8511 19.0548V17.4269ZM14.2757 17.4269H12.8511V19.0548H14.2757V17.4269ZM15.0896 33.8374V18.2409H13.4617V33.8374H15.0896ZM25.671 33.0234H14.2757V34.6513H25.671V33.0234ZM24.8571 18.2409V33.8374H26.485V18.2409H24.8571ZM27.0956 17.4269H25.671V19.0548H27.0956V17.4269ZM26.8667 17.9557C26.6786 17.7552 26.8207 17.4269 27.0956 17.4269V19.0548C28.2461 19.0548 28.8411 17.6809 28.0539 16.8419L26.8667 17.9557ZM19.7444 10.3642L26.8667 17.9557L28.0539 16.8419L20.9316 9.25039L19.7444 10.3642Z" fill="#F8C301" mask="url(#path-4-inside-1_17_376)"/>
<circle cx="19.9995" cy="17.5581" r="2.03488" stroke="#358F80" stroke-width="0.813954"/>
<rect x="25.2903" y="19.5408" width="9.11105" height="13.8898" stroke="#F8C301" stroke-width="0.813954"/>
<rect x="28.1919" y="21.3398" width="3.30834" height="3.30834" fill="#358F80"/>
<rect x="28.1919" y="28.1396" width="3.30834" height="3.30834" fill="#358F80"/>
<rect x="17.2437" y="24.5703" width="5.51163" height="7.95349" stroke="#358F80"/>
<rect x="17.1506" y="22.0349" width="5.69767" height="0.813953" stroke="#358F80" stroke-width="0.813953"/>
<path d="M21.9951 6.80637L20.0653 7.36348V6.24927L21.9951 6.80637Z" fill="#FFBF00"/>
<rect x="19.7896" y="6.16309" width="0.367593" height="3.49213" rx="0.183796" fill="#0C101A"/>
</svg>
