<svg width="42" height="42" viewBox="0 0 42 42" fill="none" xmlns="http://www.w3.org/2000/svg">
<path fill-rule="evenodd" clip-rule="evenodd" d="M25.0208 19.7157C28.2468 19.7157 29.8814 22.4531 30.8453 25.4355L31.641 27.805C31.7683 28.2128 31.2648 28.5808 30.8453 28.5808H28.1172L27.7489 27.314C26.91 24.8215 25.571 22.3268 23.1817 21.3903C23.8188 20.9733 24.3261 20.3936 24.648 19.7145L25.0208 19.7157ZM28.373 18.082C31.4739 18.163 33.1073 20.8605 34.0724 23.8019L34.826 26.1293C34.9534 26.5371 34.4498 26.9461 34.0304 26.9461H32.3151L31.7274 25.1495C30.9317 22.6581 29.5904 20.1623 27.1613 19.2269C27.6342 18.9207 28.0456 18.5327 28.3753 18.082H28.373ZM9.64353 26.9483H7.97031C7.50994 26.9483 7.04958 26.5803 7.17462 26.1315L7.92825 23.8041C8.89217 20.8627 10.5268 18.1663 13.6277 18.0843C13.9301 18.5431 14.3301 18.9332 14.8008 19.228C12.4137 20.1678 11.0701 22.6637 10.2335 25.1507L9.64353 26.9483ZM28.2036 11.2562C28.6111 11.2553 29.0147 11.3329 29.3913 11.4845C29.768 11.6361 30.1102 11.8588 30.3983 12.1397C30.6864 12.4206 30.9148 12.7543 31.0703 13.1215C31.2258 13.4887 31.3054 13.8823 31.3045 14.2795C31.3057 14.9793 31.0547 15.6572 30.5953 16.1949C30.1359 16.7325 29.4974 17.0957 28.7913 17.2209C28.9589 16.8043 29.0441 16.3606 29.0425 15.9131C29.0386 15.0444 28.7408 14.2013 28.1954 13.5144C27.65 12.8275 26.8873 12.3352 26.0257 12.114C26.3119 11.8369 26.652 11.6183 27.0259 11.471C27.3999 11.3237 27.8003 11.2506 28.2036 11.2562ZM13.7891 11.2562C14.6023 11.2527 15.3844 11.5607 15.967 12.114C15.1054 12.3352 14.3427 12.8275 13.7973 13.5144C13.2519 14.2013 12.9541 15.0444 12.9502 15.9131C12.9483 16.3608 13.0344 16.8048 13.2037 17.2209C12.4997 17.094 11.8636 16.7305 11.4059 16.1938C10.9482 15.657 10.6979 14.9809 10.6984 14.2829C10.6969 13.8857 10.7759 13.4922 10.9308 13.1249C11.0857 12.7576 11.3135 12.4238 11.6011 12.1425C11.8887 11.8613 12.2304 11.6382 12.6067 11.4861C12.9829 11.334 13.3863 11.2559 13.7936 11.2562H13.7891ZM20.9969 11.2562C21.4499 11.2547 21.8979 11.349 22.31 11.5324C22.722 11.7159 23.0884 11.9843 23.384 12.319C22.6179 12.6555 21.976 13.2129 21.5448 13.916L21.3834 14.161H20.5877L20.4627 13.916C20.0196 13.2217 19.379 12.668 18.6189 12.3223C18.9144 11.9875 19.2808 11.719 19.6929 11.5356C20.105 11.3521 20.553 11.2579 21.006 11.2595L20.9969 11.2562ZM20.9969 21.8779C24.2229 21.8779 25.8575 24.6154 26.8623 27.5977L27.6171 29.9672C27.7421 30.3762 27.2397 30.743 26.8214 30.743H15.177C14.7166 30.743 14.2131 30.3751 14.3813 29.9672L15.1315 27.6011C16.0955 24.6187 17.771 21.8812 20.9981 21.8812L20.9969 21.8779ZM20.9969 15.0553C21.6102 15.0553 22.2098 15.2327 22.7197 15.5649C23.2296 15.8971 23.6271 16.3693 23.8618 16.9217C24.0965 17.4742 24.1579 18.0821 24.0383 18.6686C23.9186 19.255 23.6233 19.7938 23.1896 20.2166C22.7559 20.6394 22.2034 20.9274 21.6019 21.044C21.0004 21.1607 20.3769 21.1008 19.8102 20.872C19.2436 20.6431 18.7593 20.2556 18.4186 19.7584C18.0779 19.2612 17.896 18.6767 17.896 18.0787C17.8951 17.6814 17.9747 17.2879 18.1302 16.9207C18.2857 16.5535 18.5141 16.2198 18.8022 15.9389C19.0904 15.658 19.4326 15.4353 19.8092 15.2837C20.1858 15.1321 20.5894 15.0545 20.9969 15.0553ZM13.8357 28.5764H11.1531C10.6927 28.5764 10.2323 28.2084 10.3574 27.8006L11.111 25.4421C12.117 22.4598 13.7504 19.7223 16.9775 19.7223H17.3538C17.6632 20.4095 18.1737 20.9924 18.8213 21.398C16.4342 22.3378 15.0508 24.8337 14.254 27.3218L13.8357 28.5764ZM16.9787 12.8875C17.5168 12.8924 18.045 13.0298 18.5141 13.2872C18.9831 13.5445 19.3777 13.9133 19.6613 14.3593C18.8791 14.6391 18.2031 15.1451 17.7237 15.8095C17.2443 16.474 16.9844 17.2653 16.9787 18.0776C16.9858 18.3651 17.0139 18.6518 17.0628 18.9354H16.9787C16.1563 18.9354 15.3675 18.6169 14.786 18.0499C14.2045 17.4829 13.8778 16.7139 13.8778 15.912C13.8778 15.1102 14.2045 14.3412 14.786 13.7742C15.3675 13.2072 16.1563 12.8886 16.9787 12.8886V12.8875ZM25.0231 12.8875C25.8455 12.8875 26.6343 13.2061 27.2158 13.7731C27.7973 14.3401 28.124 15.1091 28.124 15.9109C28.124 16.7128 27.7973 17.4818 27.2158 18.0488C26.6343 18.6158 25.8455 18.9343 25.0231 18.9343H24.8981C24.9808 18.6555 25.0229 18.3667 25.0231 18.0765C25.0172 17.2643 24.7571 16.4733 24.2778 15.8091C23.7984 15.1448 23.1225 14.6391 22.3405 14.3593C22.6207 13.9112 23.0144 13.5409 23.4838 13.2841C23.9533 13.0273 24.4826 12.8927 25.0208 12.8931L25.0231 12.8875Z" fill="#FEBF10"/>
<path d="M21 41C32.0457 41 41 32.0457 41 21C41 9.95431 32.0457 1 21 1C9.95431 1 1 9.95431 1 21C1 32.0457 9.95431 41 21 41Z" stroke="#60C1F8" stroke-width="2" stroke-miterlimit="10"/>
</svg>
