<svg width="41" height="40" viewBox="0 0 41 40" fill="none" xmlns="http://www.w3.org/2000/svg">
<path d="M31.3981 26.7988C31.3981 26.2908 30.9863 25.8789 30.4783 25.8789H24.0589C24.1954 22.5578 25.036 19.1889 25.8515 15.9219C26.7695 12.2448 27.7187 8.44266 27.7187 4.59933C27.7187 2.06326 25.6554 0 23.1193 0H4.59933C2.06326 0 0 2.06326 0 4.59933C0 5.10735 0.411855 5.5192 0.919867 5.5192H7.33974C7.20317 8.84023 6.36223 12.2093 5.54661 15.4763C4.62865 19.1533 3.67947 22.9555 3.67947 26.7988C3.67947 29.3349 5.74273 31.3981 8.2788 31.3981H26.7988C29.3349 31.3981 31.3981 29.3349 31.3981 26.7988ZM1.99734 3.67947C2.377 2.60868 3.40007 1.83973 4.59933 1.83973C5.79859 1.83973 6.82167 2.60868 7.20133 3.67947H1.99734ZM5.5192 26.7988C5.5192 23.1816 6.44054 19.491 7.33152 15.9219C8.24949 12.2448 9.19867 8.44266 9.19867 4.59933C9.19867 3.56473 8.85507 2.60899 8.27629 1.83973H23.1193C24.641 1.83973 25.8789 3.07769 25.8789 4.59933C25.8789 8.21649 24.9576 11.9071 24.0666 15.4763C23.2219 18.8597 22.3515 22.3491 22.2177 25.8789H11.9583C11.4503 25.8789 11.0384 26.2908 11.0384 26.7988C11.0384 28.3204 9.80044 29.5584 8.2788 29.5584C6.75716 29.5584 5.5192 28.3204 5.5192 26.7988ZM26.7988 29.5584H11.9548C12.3576 29.0232 12.6472 28.3982 12.7857 27.7187H29.4002C29.0204 28.7893 27.998 29.5584 26.7988 29.5584Z" fill="#25843F"/>
<path d="M11.9584 9.19911H22.8126C23.3206 9.19911 23.7324 8.78725 23.7324 8.27924C23.7324 7.77123 23.3206 7.35938 22.8126 7.35938H11.9584C11.4504 7.35938 11.0386 7.77123 11.0386 8.27924C11.0386 8.78725 11.4504 9.19911 11.9584 9.19911Z" fill="#22355D"/>
<path d="M11.0947 12.8778H22.0751C22.5831 12.8778 22.995 12.466 22.995 11.958C22.995 11.4499 22.5831 11.0381 22.0751 11.0381H11.0947C10.5867 11.0381 10.1748 11.4499 10.1748 11.958C10.1748 12.466 10.5867 12.8778 11.0947 12.8778Z" fill="#22355D"/>
<path d="M10.2329 16.5575H21.1653C21.6734 16.5575 22.0852 16.1457 22.0852 15.6376C22.0852 15.1296 21.6734 14.7178 21.1653 14.7178H10.2329C9.72484 14.7178 9.31299 15.1296 9.31299 15.6376C9.31299 16.1457 9.72484 16.5575 10.2329 16.5575Z" fill="#22355D"/>
<path d="M9.3227 20.2372H20.3032C20.8112 20.2372 21.2231 19.8253 21.2231 19.3173C21.2231 18.8093 20.8112 18.3975 20.3032 18.3975H9.3227C8.81469 18.3975 8.40283 18.8093 8.40283 19.3173C8.40283 19.8253 8.81469 20.2372 9.3227 20.2372Z" fill="#22355D"/>
<circle cx="28.4469" cy="27.6201" r="9.72717" transform="rotate(-60 28.4469 27.6201)" fill="#F8C301" stroke="white" stroke-width="2"/>
<path d="M28.887 22.6631C26.2444 22.6631 24.1091 24.8037 24.1091 27.4436H22.5156L24.5845 29.5125L24.6217 29.5895L26.765 27.4436H25.1715C25.1715 25.3907 26.8367 23.7254 28.8897 23.7254C30.9426 23.7254 32.6079 25.3907 32.6079 27.4436C32.6079 29.4966 30.9426 31.1618 28.8897 31.1618C27.8619 31.1618 26.935 30.7422 26.263 30.0703L25.5114 30.8219C26.3746 31.6877 27.5671 32.2242 28.887 32.2242C31.5296 32.2242 33.6702 30.0836 33.6702 27.4436C33.6702 24.8037 31.5296 22.6631 28.887 22.6631Z" fill="white"/>
<path d="M28.3584 25.3184V27.9742L30.6318 29.3234L31.0142 28.678L29.1552 27.5758V25.3184H28.3584Z" fill="white"/>
</svg>
