<svg width="40" height="40" viewBox="0 0 40 40" fill="none" xmlns="http://www.w3.org/2000/svg">
<rect x="3.146" y="18.5068" width="29.0222" height="1.35618" fill="#F8C301"/>
<path d="M26.4721 19.3208C26.4721 27.2602 22.5254 33.6963 17.657 33.6963C12.7885 33.6963 8.8418 27.2602 8.8418 19.3208C8.8418 11.3814 12.7885 4.94531 17.657 4.94531C22.5254 4.94531 26.4721 11.3814 26.4721 19.3208ZM9.80342 19.3208C9.80342 26.3941 13.3196 32.1281 17.657 32.1281C21.9943 32.1281 25.5105 26.3941 25.5105 19.3208C25.5105 12.2475 21.9943 6.51349 17.657 6.51349C13.3196 6.51349 9.80342 12.2475 9.80342 19.3208Z" fill="#F8C301"/>
<path d="M32.1682 19.3208C32.1682 27.2602 25.6714 33.6963 17.6571 33.6963C9.64284 33.6963 3.146 27.2602 3.146 19.3208C3.146 11.3814 9.64284 4.94531 17.6571 4.94531C25.6714 4.94531 32.1682 11.3814 32.1682 19.3208ZM4.42094 19.3208C4.42094 26.5626 10.347 32.4333 17.6571 32.4333C24.9672 32.4333 30.8933 26.5626 30.8933 19.3208C30.8933 12.079 24.9672 6.20834 17.6571 6.20834C10.347 6.20834 4.42094 12.079 4.42094 19.3208Z" fill="#F8C301"/>
<rect x="16.979" y="4.94531" width="1.35618" height="28.751" fill="#F8C301"/>
<path d="M27.5573 9.96294C27.5573 12.2848 23.0641 14.1671 17.5216 14.1671C11.979 14.1671 7.48584 12.2848 7.48584 9.96294C7.48584 7.64105 11.979 5.75879 17.5216 5.75879C23.0641 5.75879 27.5573 7.64105 27.5573 9.96294ZM9.49728 9.96294C9.49728 11.8195 13.0899 13.3245 17.5216 13.3245C21.9532 13.3245 25.5458 11.8195 25.5458 9.96294C25.5458 8.10642 21.9532 6.60142 17.5216 6.60142C13.0899 6.60142 9.49728 8.10642 9.49728 9.96294Z" fill="#F8C301"/>
<path d="M27.5573 28.407C27.5573 30.8787 23.0641 32.8824 17.5216 32.8824C11.979 32.8824 7.48584 30.8787 7.48584 28.407C7.48584 25.9353 11.979 23.9316 17.5216 23.9316C23.0641 23.9316 27.5573 25.9353 27.5573 28.407ZM8.77922 28.407C8.77922 30.5602 12.6933 32.3056 17.5216 32.3056C22.3498 32.3056 26.2639 30.5602 26.2639 28.407C26.2639 26.2539 22.3498 24.5084 17.5216 24.5084C12.6933 24.5084 8.77922 26.2539 8.77922 28.407Z" fill="#F8C301"/>
<path d="M29.9106 32.3207L22.9343 19.0022C22.8424 18.8268 23.0143 18.63 23.2005 18.6976L37.5323 23.8976C37.7103 23.9622 37.7259 24.2079 37.5575 24.2945L33.5351 26.3632C33.3994 26.433 33.3762 26.6174 33.4905 26.7186L37.842 30.5728C37.9298 30.6506 37.9399 30.7841 37.8648 30.8742L36.7866 32.1681C36.7082 32.2621 36.5677 32.2727 36.476 32.1916L32.1314 28.3435C32.018 28.243 31.839 28.2869 31.7849 28.4284L30.3055 32.2975C30.2388 32.4721 29.9973 32.4862 29.9106 32.3207Z" fill="#358F80" stroke="white" stroke-width="0.542471"/>
</svg>
