<svg width="42" height="46" viewBox="0 0 42 46" fill="none" xmlns="http://www.w3.org/2000/svg">
<path d="M17.1691 30.9905H15.4473C14.3427 30.9905 13.4473 30.095 13.4473 28.9905V23.0454C13.4473 22.515 13.658 22.0063 14.0331 21.6312L15.1502 20.514C15.5253 20.139 15.736 19.6303 15.736 19.0998V16.4952H17.6433V18.021L19.6622 16.0021C20.4432 15.2211 21.7095 15.2211 22.4906 16.0021L28.1197 21.6312C28.4948 22.0063 28.7055 22.515 28.7055 23.0454V28.9905C28.7055 30.095 27.81 30.9905 26.7055 30.9905H24.9836C23.8791 30.9905 22.9836 30.095 22.9836 28.9905V28.3203C22.9836 27.2669 22.1297 26.413 21.0764 26.413C20.023 26.413 19.1691 27.2669 19.1691 28.3203V28.9905C19.1691 30.095 18.2737 30.9905 17.1691 30.9905Z" fill="#25843F"/>
<circle cx="21.0766" cy="22.9799" r="16.6655" stroke="#22355D"/>
<circle cx="21.0768" cy="5.81455" r="4.81455" fill="#F8C301" stroke="white" stroke-width="2"/>
<circle cx="35.9422" cy="14.3973" r="4.81455" transform="rotate(60 35.9422 14.3973)" fill="#F8C301" stroke="white" stroke-width="2"/>
<circle cx="6.21077" cy="14.3967" r="4.81455" transform="rotate(-60 6.21077 14.3967)" fill="#F8C301" stroke="white" stroke-width="2"/>
<circle cx="21.0768" cy="40.1456" r="4.81455" fill="#F8C301" stroke="white" stroke-width="2"/>
<circle cx="6.21071" cy="31.5623" r="4.81455" transform="rotate(60 6.21071 31.5623)" fill="#F8C301" stroke="white" stroke-width="2"/>
<circle cx="35.9422" cy="31.5628" r="4.81455" transform="rotate(-60 35.9422 31.5628)" fill="#F8C301" stroke="white" stroke-width="2"/>
</svg>
