<svg width="36" height="39" viewBox="0 0 36 39" fill="none" xmlns="http://www.w3.org/2000/svg">
<path fill-rule="evenodd" clip-rule="evenodd" d="M17.6842 32.421C19.3752 32.421 29.8947 20.6384 29.8947 12.2105C29.8947 5.46684 24.4278 0 17.6842 0C10.9405 0 5.47363 5.46684 5.47363 12.2105C5.47363 20.6384 15.9931 32.421 17.6842 32.421ZM17.6843 17.6842C20.9399 17.6842 23.579 15.045 23.579 11.7894C23.579 8.53388 20.9399 5.89471 17.6843 5.89471C14.4287 5.89471 11.7896 8.53388 11.7896 11.7894C11.7896 15.045 14.4287 17.6842 17.6843 17.6842Z" fill="#25843F"/>
<ellipse cx="17.684" cy="33.8951" rx="2.52631" ry="0.210526" fill="#F8C301"/>
<path fill-rule="evenodd" clip-rule="evenodd" d="M17.6843 35.258C23.7304 35.258 28.6317 34.4097 28.6317 33.3632C28.6317 33.3295 28.6266 33.296 28.6166 33.2627C28.9006 33.4284 29.0528 33.6034 29.0528 33.7843C29.0528 34.8307 23.9629 35.679 17.6843 35.679C11.4057 35.679 6.31592 34.8307 6.31592 33.7843C6.31592 33.6034 6.46804 33.4284 6.75212 33.2627C6.74206 33.296 6.73697 33.3295 6.73697 33.3632C6.73697 34.4097 11.6383 35.258 17.6843 35.258Z" fill="#22355D"/>
<path fill-rule="evenodd" clip-rule="evenodd" d="M17.6842 37.6302C27.0892 37.6302 34.7135 36.3106 34.7135 34.6828C34.7135 34.6303 34.7056 34.5782 34.6899 34.5264C35.1318 34.7842 35.3684 35.0564 35.3684 35.3378C35.3684 36.9656 27.4509 38.2851 17.6842 38.2851C7.91749 38.2851 0 36.9656 0 35.3378C0 35.0563 0.23665 34.7841 0.678592 34.5264C0.66294 34.5782 0.655016 34.6303 0.655016 34.6828C0.655016 36.3106 8.27926 37.6302 17.6842 37.6302Z" fill="#F8C301"/>
</svg>
