<svg width="1758" height="375" viewBox="0 0 1758 375" fill="none" xmlns="http://www.w3.org/2000/svg">
<g style="mix-blend-mode:multiply">
<path d="M2.63745 0C12.6295 54.2694 101.094 92.3456 189.081 100.588C277.068 108.831 365.907 94.8011 453.474 85.0387C541.04 75.2763 635.659 70.3025 715.222 94.7729C784.393 116.04 838.893 158.516 915.855 163.377C1027.32 170.395 1110.61 95.4605 1221.62 86.0184C1287.84 80.3852 1352.81 99.103 1410.31 120.022C1467.81 140.941 1524.71 165.138 1590.55 172.266C1656.4 179.394 1735.07 163.16 1758 124.632V375H-42.0001L2.63745 0Z" fill="url(#paint0_linear_117_171)"/>
</g>
<defs>
<linearGradient id="paint0_linear_117_171" x1="1790.5" y1="375" x2="9.00011" y2="137" gradientUnits="userSpaceOnUse">
<stop offset="0.125" stop-color="#469D89"/>
<stop offset="0.385" stop-color="#358F80"/>
<stop offset="0.706591" stop-color="#248277"/>
<stop offset="1" stop-color="#14746F"/>
</linearGradient>
</defs>
</svg>
